<svg xmlns="http://www.w3.org/2000/svg" version="1.1" xmlns:xlink="http://www.w3.org/1999/xlink" width="512" height="512"><svg width="512" height="512" fill="none" xmlns="http://www.w3.org/2000/svg"><path fill="#1E1E1E" d="M0 0h512v512H0z"></path><path fill="#002147" d="M0 0h512v512H0z"></path><path d="M202.44 226.63c0 3.28-1.62 5.04-3.24 5.04-.94 0-1.32-.33-1.32-1.97v-7.14c0-.46 0-.88.09-.92.12-.09.38-.13.8-.13 1.62 0 3.67 1.14 3.67 5.12Z" fill="#fff"></path><path d="M213.72 221.26c-1.45 0-2.68 1.64-2.68 4.91 0 3.28 1.32 5.8 3.15 5.8 1.62 0 2.51-1.56 2.51-4.92 0-3.73-1.36-5.8-2.98-5.8Zm0 0c-1.45 0-2.68 1.64-2.68 4.91 0 3.28 1.32 5.8 3.15 5.8 1.62 0 2.51-1.56 2.51-4.92 0-3.73-1.36-5.8-2.98-5.8Zm0 0c-1.45 0-2.68 1.64-2.68 4.91 0 3.28 1.32 5.8 3.15 5.8 1.62 0 2.51-1.56 2.51-4.92 0-3.73-1.36-5.8-2.98-5.8Zm0 0c-1.45 0-2.68 1.64-2.68 4.91 0 3.28 1.32 5.8 3.15 5.8 1.62 0 2.51-1.56 2.51-4.92 0-3.73-1.36-5.8-2.98-5.8Zm0 0c-1.45 0-2.68 1.64-2.68 4.91 0 3.28 1.32 5.8 3.15 5.8 1.62 0 2.51-1.56 2.51-4.92 0-3.73-1.36-5.8-2.98-5.8Zm0 0c-1.45 0-2.68 1.64-2.68 4.91 0 3.28 1.32 5.8 3.15 5.8 1.62 0 2.51-1.56 2.51-4.92 0-3.73-1.36-5.8-2.98-5.8Zm0 0c-1.45 0-2.68 1.64-2.68 4.91 0 3.28 1.32 5.8 3.15 5.8 1.62 0 2.51-1.56 2.51-4.92 0-3.73-1.36-5.8-2.98-5.8Zm0 0c-1.45 0-2.68 1.64-2.68 4.91 0 3.28 1.32 5.8 3.15 5.8 1.62 0 2.51-1.56 2.51-4.92 0-3.73-1.36-5.8-2.98-5.8Zm0 0c-1.45 0-2.68 1.64-2.68 4.91 0 3.28 1.32 5.8 3.15 5.8 1.62 0 2.51-1.56 2.51-4.92 0-3.73-1.36-5.8-2.98-5.8Zm0 0c-1.45 0-2.68 1.64-2.68 4.91 0 3.28 1.32 5.8 3.15 5.8 1.62 0 2.51-1.56 2.51-4.92 0-3.73-1.36-5.8-2.98-5.8Zm0 0c-1.45 0-2.68 1.64-2.68 4.91 0 3.28 1.32 5.8 3.15 5.8 1.62 0 2.51-1.56 2.51-4.92 0-3.73-1.36-5.8-2.98-5.8Zm0 0c-1.45 0-2.68 1.64-2.68 4.91 0 3.28 1.32 5.8 3.15 5.8 1.62 0 2.51-1.56 2.51-4.92 0-3.73-1.36-5.8-2.98-5.8Zm0 0c-1.45 0-2.68 1.64-2.68 4.91 0 3.28 1.32 5.8 3.15 5.8 1.62 0 2.51-1.56 2.51-4.92 0-3.73-1.36-5.8-2.98-5.8Zm0 0c-1.45 0-2.68 1.64-2.68 4.91 0 3.28 1.32 5.8 3.15 5.8 1.62 0 2.51-1.56 2.51-4.92 0-3.73-1.36-5.8-2.98-5.8Zm0 0c-1.45 0-2.68 1.64-2.68 4.91 0 3.28 1.32 5.8 3.15 5.8 1.62 0 2.51-1.56 2.51-4.92 0-3.73-1.36-5.8-2.98-5.8Zm0 0c-1.45 0-2.68 1.64-2.68 4.91 0 3.28 1.32 5.8 3.15 5.8 1.62 0 2.51-1.56 2.51-4.92 0-3.73-1.36-5.8-2.98-5.8Zm0 0c-1.45 0-2.68 1.64-2.68 4.91 0 3.28 1.32 5.8 3.15 5.8 1.62 0 2.51-1.56 2.51-4.92 0-3.73-1.36-5.8-2.98-5.8Zm0 0c-1.45 0-2.68 1.64-2.68 4.91 0 3.28 1.32 5.8 3.15 5.8 1.62 0 2.51-1.56 2.51-4.92 0-3.73-1.36-5.8-2.98-5.8Zm0 0c-1.45 0-2.68 1.64-2.68 4.91 0 3.28 1.32 5.8 3.15 5.8 1.62 0 2.51-1.56 2.51-4.92 0-3.73-1.36-5.8-2.98-5.8Zm0 0c-1.45 0-2.68 1.64-2.68 4.91 0 3.28 1.32 5.8 3.15 5.8 1.62 0 2.51-1.56 2.51-4.92 0-3.73-1.36-5.8-2.98-5.8Zm30.49-10.96c-3.5-2.02-8.22-2.69-14.01-2.69h-42.15v84.27h45.9c10.6 0 16.86 2.35 17.37 11.76h1.02v-76.59c0-7.47-2.56-13.52-8.13-16.75Zm-22.95 21.62c.93-.08 1.27-.25 1.4-.92.09-.59.17-1.6.3-3.28l.17-3.73c.17-2.35 0-2.56-1.49-2.69v-.71h4.43l3.32 7.34 2.85-7.34h4.6v.71c-1.45.13-1.53.21-1.45 2.14l.17 6.26c.04 2.06.09 2.1 1.45 2.22v.72h-5.88v-.72c1.41-.12 1.45-.16 1.45-2.22l-.08-6.55h-.05l-3.66 9.32h-1.02l-3.45-8.7-.17 4.16c0 1.6 0 2.48.04 3.07.09.67.52.84 1.75.92v.72h-4.68v-.72Zm10.68 18.27-.3-.13c-1.53-.71-3.27-1.68-3.27-3.65 0-2.1 1.53-3.82 4.51-3.82.55 0 1.2.08 1.7.25.43.09.77.17.98.25.09.72.22 1.64.43 2.9l-.81.13c-.43-1.22-1.1-2.57-2.6-2.57-.94 0-1.62.72-1.62 1.64 0 .93.73 1.47 1.92 1.97l.43.22c1.74.8 3.23 1.72 3.23 3.9 0 2.18-1.87 3.95-4.77 3.95a8.8 8.8 0 0 1-2.04-.3c-.6-.2-.98-.33-1.2-.46-.16-.84-.42-1.85-.63-3.1l.85-.26c.38 1.1 1.49 3.15 3.32 3.15.98 0 1.75-.63 1.75-1.85 0-1.09-.73-1.68-1.88-2.22Zm-12.39-5.63c.34 1.05 1.83 4.7 2.51 6.51.6-1.55 1.8-5.12 2.1-6 .38-1.14.29-1.3-.56-1.43h-.56v-.76h4.56v.72c-1.1.12-1.36.2-2.09 1.93-.12.25-2.42 5.75-3.83 9.53h-1.44l-3.75-9.66c-.6-1.6-.98-1.68-1.92-1.8v-.72h6.09v.72l-.64.08c-.68.08-.68.25-.47.88Zm-5.45-24.27a5.93 5.93 0 0 1 6.1 6.18c0 3.98-2.77 6.46-6.35 6.46-3.83 0-6.3-2.73-6.3-6.13 0-3.02 2.04-6.5 6.55-6.5Zm-20.94 12.35v-.72c1.36-.12 1.53-.25 1.53-2.22v-6.13c0-2.02-.17-2.14-1.4-2.27v-.71h5.49c2.34 0 4.25.42 5.53 1.63a5.5 5.5 0 0 1 1.62 3.83c0 4.61-3.58 6.59-7.92 6.59h-4.85Zm12.51 33.25c-1.27.13-1.44.25-1.44 2.23v6.17c0 1.97.17 2.1 1.44 2.22v.72h-6.09v-.72c1.28-.12 1.45-.25 1.45-2.22v-6.17c0-1.98-.17-2.1-1.45-2.23v-.71h6.1v.71Zm.3-10.96h-4.68v-.71c.85-.04 1.32-.3 1.4-.93.09-.58.17-1.63.17-3.56v-3.4c0-1.39 0-1.64-.42-2.15-.3-.42-.77-.54-1.45-.58v-.72h4.17l6.26 7.69h.04v-2.48c0-1.93-.04-2.98-.12-3.53-.09-.67-.6-.92-1.88-.96v-.72h4.81v.72c-.93.04-1.4.29-1.49.96-.08.55-.17 1.6-.17 3.53v6.97H211l-6.98-8.74h-.04v3.4c0 1.94.09 2.99.17 3.57.09.64.6.89 1.83.93v.71Zm10.26 22.3h-9.32v-.72c1.44-.12 1.57-.25 1.57-2.22v-6.17c0-1.98-.13-2.1-1.4-2.23v-.71h6.13v.71c-1.36.13-1.53.25-1.53 2.23v6.38c0 .96.04 1.43.38 1.6.3.16.77.16 1.32.16.6 0 1.4-.04 1.83-.54.3-.34.6-.84.9-1.8l.8.12c-.08.71-.5 2.64-.68 3.19Zm10.52 0h-9.32v-.72c1.44-.12 1.57-.25 1.57-2.22v-6.17c0-1.98-.13-2.1-1.4-2.23v-.71h6.13v.71c-1.37.13-1.54.25-1.54 2.23v6.38c0 .96.05 1.43.39 1.6.3.16.72.16 1.32.16.6 0 1.4-.04 1.83-.54.3-.34.6-.84.9-1.8l.8.12c-.09.71-.51 2.64-.68 3.19Zm11.8-11.34c-1.07.13-1.33.21-2.05 1.93-.13.25-2.43 5.75-3.83 9.53h-1.45c-1.32-3.31-3.07-7.93-3.75-9.65-.64-1.6-1.02-1.68-1.91-1.8v-.72h6.09v.71l-.64.09c-.73.04-.73.2-.51.88.34 1.05 1.83 4.7 2.55 6.5l2.09-6c.38-1.13.25-1.34-.6-1.43H234v-.75h4.55v.71Zm5.87-44.59c-1.32.13-1.45.25-1.45 2.27v6.13c0 1.97.13 2.1 1.45 2.22v.72h-6.13v-.72c1.32-.12 1.45-.25 1.45-2.22v-6.13c0-2.02-.13-2.14-1.45-2.27v-.71h6.13v.71Zm-30.23 10.67c1.62 0 2.51-1.56 2.51-4.92 0-3.73-1.36-5.8-2.98-5.8-1.45 0-2.68 1.65-2.68 4.92 0 3.28 1.32 5.8 3.15 5.8Zm-.47-10.71c-1.45 0-2.68 1.64-2.68 4.91 0 3.28 1.32 5.8 3.15 5.8 1.62 0 2.51-1.56 2.51-4.92 0-3.73-1.36-5.8-2.98-5.8Zm0 0c-1.45 0-2.68 1.64-2.68 4.91 0 3.28 1.32 5.8 3.15 5.8 1.62 0 2.51-1.56 2.51-4.92 0-3.73-1.36-5.8-2.98-5.8Zm0 0c-1.45 0-2.68 1.64-2.68 4.91 0 3.28 1.32 5.8 3.15 5.8 1.62 0 2.51-1.56 2.51-4.92 0-3.73-1.36-5.8-2.98-5.8Zm0 0c-1.45 0-2.68 1.64-2.68 4.91 0 3.28 1.32 5.8 3.15 5.8 1.62 0 2.51-1.56 2.51-4.92 0-3.73-1.36-5.8-2.98-5.8Zm0 0c-1.45 0-2.68 1.64-2.68 4.91 0 3.28 1.32 5.8 3.15 5.8 1.62 0 2.51-1.56 2.51-4.92 0-3.73-1.36-5.8-2.98-5.8Zm0 0c-1.45 0-2.68 1.64-2.68 4.91 0 3.28 1.32 5.8 3.15 5.8 1.62 0 2.51-1.56 2.51-4.92 0-3.73-1.36-5.8-2.98-5.8Zm0 0c-1.45 0-2.68 1.64-2.68 4.91 0 3.28 1.32 5.8 3.15 5.8 1.62 0 2.51-1.56 2.51-4.92 0-3.73-1.36-5.8-2.98-5.8Zm0 0c-1.45 0-2.68 1.64-2.68 4.91 0 3.28 1.32 5.8 3.15 5.8 1.62 0 2.51-1.56 2.51-4.92 0-3.73-1.36-5.8-2.98-5.8Zm0 0c-1.45 0-2.68 1.64-2.68 4.91 0 3.28 1.32 5.8 3.15 5.8 1.62 0 2.51-1.56 2.51-4.92 0-3.73-1.36-5.8-2.98-5.8Zm0 0c-1.45 0-2.68 1.64-2.68 4.91 0 3.28 1.32 5.8 3.15 5.8 1.62 0 2.51-1.56 2.51-4.92 0-3.73-1.36-5.8-2.98-5.8Zm0 0c-1.45 0-2.68 1.64-2.68 4.91 0 3.28 1.32 5.8 3.15 5.8 1.62 0 2.51-1.56 2.51-4.92 0-3.73-1.36-5.8-2.98-5.8Zm0 0c-1.45 0-2.68 1.64-2.68 4.91 0 3.28 1.32 5.8 3.15 5.8 1.62 0 2.51-1.56 2.51-4.92 0-3.73-1.36-5.8-2.98-5.8Zm0 0c-1.45 0-2.68 1.64-2.68 4.91 0 3.28 1.32 5.8 3.15 5.8 1.62 0 2.51-1.56 2.51-4.92 0-3.73-1.36-5.8-2.98-5.8Zm0 0c-1.45 0-2.68 1.64-2.68 4.91 0 3.28 1.32 5.8 3.15 5.8 1.62 0 2.51-1.56 2.51-4.92 0-3.73-1.36-5.8-2.98-5.8Zm0 0c-1.45 0-2.68 1.64-2.68 4.91 0 3.28 1.32 5.8 3.15 5.8 1.62 0 2.51-1.56 2.51-4.92 0-3.73-1.36-5.8-2.98-5.8Zm0 0c-1.45 0-2.68 1.64-2.68 4.91 0 3.28 1.32 5.8 3.15 5.8 1.62 0 2.51-1.56 2.51-4.92 0-3.73-1.36-5.8-2.98-5.8Zm0 0c-1.45 0-2.68 1.64-2.68 4.91 0 3.28 1.32 5.8 3.15 5.8 1.62 0 2.51-1.56 2.51-4.92 0-3.73-1.36-5.8-2.98-5.8Zm0 0c-1.45 0-2.68 1.64-2.68 4.91 0 3.28 1.32 5.8 3.15 5.8 1.62 0 2.51-1.56 2.51-4.92 0-3.73-1.36-5.8-2.98-5.8ZM310.07 224.74l-1.19 3.57h2.43l-1.2-3.57h-.04Zm0 0-1.19 3.57h2.43l-1.2-3.57h-.04Zm-7.92 19.23c-1.49 0-2.68 1.64-2.68 4.88 0 3.23 1.28 5.83 3.15 5.83 1.62 0 2.47-1.55 2.47-4.91 0-3.74-1.32-5.8-2.94-5.8Zm7.92-19.23-1.19 3.57h2.43l-1.2-3.57h-.04Zm0 0-1.19 3.57h2.43l-1.2-3.57h-.04Zm-7.92 19.23c-1.49 0-2.68 1.64-2.68 4.88 0 3.23 1.28 5.83 3.15 5.83 1.62 0 2.47-1.55 2.47-4.91 0-3.74-1.32-5.8-2.94-5.8Zm0 0c-1.49 0-2.68 1.64-2.68 4.88 0 3.23 1.28 5.83 3.15 5.83 1.62 0 2.47-1.55 2.47-4.91 0-3.74-1.32-5.8-2.94-5.8Zm7.92-19.23-1.19 3.57h2.43l-1.2-3.57h-.04Zm0 0-1.19 3.57h2.43l-1.2-3.57h-.04Zm-7.92 19.23c-1.49 0-2.68 1.64-2.68 4.88 0 3.23 1.28 5.83 3.15 5.83 1.62 0 2.47-1.55 2.47-4.91 0-3.74-1.32-5.8-2.94-5.8Zm-20.3-36.36c-5.84 0-10.56.67-14.01 2.7-5.58 3.22-8.14 9.27-8.14 16.74v76.59h.98c.56-9.4 6.82-11.76 17.42-11.76h46.15v-84.27h-42.4Zm9.91 13.35h4.18l6.26 7.73h.04v-2.48c0-1.97-.09-2.98-.13-3.56-.13-.64-.64-.89-1.87-.93v-.75h4.8v.75c-.93.04-1.44.3-1.52.93-.05.58-.13 1.59-.13 3.56v6.97h-1.62l-6.98-8.77h-.04v3.44c0 1.93.08 2.98.17 3.53.08.67.6.88 1.83.96v.72h-4.69v-.72c.81-.04 1.32-.29 1.4-.96.1-.55.14-1.6.14-3.53v-3.44c0-1.34 0-1.6-.39-2.14-.3-.38-.76-.5-1.44-.55v-.75Zm16.87 28.22c0 3.95-2.77 6.47-6.4 6.47a6.1 6.1 0 0 1-6.25-6.18c0-2.98 2.04-6.46 6.51-6.46a5.94 5.94 0 0 1 6.14 6.17Zm-14.23 5.46v.71h-6.08v-.71c1.27-.13 1.44-.25 1.44-2.27v-6.13c0-2.01-.17-2.14-1.44-2.22v-.76h6.08v.76c-1.31.08-1.44.2-1.44 2.22v6.13c0 2.02.13 2.14 1.44 2.27Zm-9.7-22.3c1.32-.12 1.44-.25 1.44-2.26v-6.13c0-2.02-.12-2.14-1.44-2.23v-.75h6.09v.75c-1.28.09-1.45.21-1.45 2.23v6.13c0 2.01.17 2.14 1.45 2.26v.72h-6.1v-.72Zm.13 22.3v.71h-6.6v-.71c1.49-.13 1.66-.25 1.66-2.27v-8.14h-.34c-1.24 0-1.75.25-2.05.58-.25.26-.47.76-.72 1.8H276c.09-1.59.17-2.85.21-3.81h.6c.3.42.47.46.98.46h7.5c.5 0 .59-.08.89-.46h.6c0 .8.12 2.4.2 3.73l-.85.09c-.25-1.13-.46-1.6-.76-1.93-.3-.34-.94-.46-1.83-.46h-.47v8.14c0 2.02.17 2.14 1.75 2.27Zm-12.52-21.58h-4.64v-.72c.89-.08 1.27-.25 1.4-.96.09-.55.17-1.56.3-3.23l.17-3.78c.17-2.31 0-2.52-1.5-2.65v-.75h4.44l3.32 7.38 2.85-7.38h4.6v.75c-1.45.13-1.53.21-1.45 2.14l.17 6.22c.04 2.05.09 2.14 1.45 2.26v.72h-5.88v-.72c1.4-.12 1.45-.2 1.45-2.26l-.08-6.51h-.05l-3.66 9.28h-1.02l-3.45-8.65h-.04l-.13 4.11c-.04 1.6-.04 2.52.04 3.07.09.71.51.88 1.7.96v.72Zm16.52 44.59h-5.88v-.72c1.4-.12 1.45-.2 1.45-2.26l-.09-6.55h-.04l-3.66 9.32h-1.02l-3.45-8.65-.17 4.11c-.04 1.6 0 2.48 0 3.07.08.71.51.88 1.74.96v.72h-4.68v-.72c.94-.08 1.28-.25 1.4-.96.1-.59.18-1.56.3-3.24l.22-3.77c.13-2.31-.05-2.52-1.54-2.65v-.75h4.43l3.32 7.38 2.86-7.38h4.6v.75c-1.45.13-1.5.21-1.45 2.14l.17 6.22c.04 2.05.08 2.14 1.45 2.26v.72h.04Zm10.73 0h-9.58v-.72c1.44-.12 1.57-.25 1.57-2.26v-6.13c0-2.02-.13-2.15-1.4-2.23v-.75h8.94c0 .33.13 1.68.21 3.06l-.85.08c-.17-.92-.38-1.42-.68-1.72-.3-.33-.94-.46-1.92-.46h-.34c-.48 0-.72.23-.72.67v3.57h.94c1.61 0 1.65-.08 1.83-1.51h.85v4.37h-.85c-.18-1.64-.22-1.73-1.83-1.73h-.94v3.03c0 .96 0 1.43.34 1.6.34.16.76.16 1.32.16.76 0 1.62-.12 2-.54.34-.34.64-1.05.94-1.94l.8.13c-.08.92-.46 2.81-.63 3.32Zm13.2 0h-5.92v-.72l.55-.08c.68-.08.73-.3.51-.97l-.68-1.88h-3.1l-.56 1.8c-.26.8-.26.97.6 1.05l.55.08v.72h-4.39v-.72c.98-.12 1.24-.2 1.88-1.76l3.74-9.62 1.32-.25 1.28 3.49c.81 2.22 1.62 4.4 2.34 6.3.6 1.63.94 1.72 1.88 1.84v.72Zm4.42-44.6h-5.91v-.7l.55-.09c.68-.08.72-.3.47-.97l-.64-1.88h-3.1l-.56 1.8c-.26.8-.26.97.6 1.05l.55.08v.72h-4.39v-.72c.94-.12 1.24-.2 1.88-1.76l3.74-9.62 1.32-.25 1.28 3.49c.8 2.22 1.62 4.4 2.34 6.3.6 1.63.94 1.72 1.87 1.84v.72Zm-7.15-8.3-1.2 3.56h2.44l-1.2-3.57h-.04Zm-4.43 44.58-1.15 3.57h2.39l-1.2-3.57h-.04Zm-6.13-20.48c0 3.35 1.28 5.83 3.15 5.83 1.62 0 2.47-1.55 2.47-4.91 0-3.74-1.32-5.8-2.94-5.8-1.49 0-2.68 1.64-2.68 4.88Zm2.68-4.88c-1.49 0-2.68 1.64-2.68 4.88 0 3.23 1.28 5.83 3.15 5.83 1.62 0 2.47-1.55 2.47-4.91 0-3.74-1.32-5.8-2.94-5.8Zm7.92-19.23-1.19 3.57h2.43l-1.2-3.57h-.04Zm0 0-1.19 3.57h2.43l-1.2-3.57h-.04Zm-7.92 19.23c-1.49 0-2.68 1.64-2.68 4.88 0 3.23 1.28 5.83 3.15 5.83 1.62 0 2.47-1.55 2.47-4.91 0-3.74-1.32-5.8-2.94-5.8Zm7.92-19.23-1.19 3.57h2.43l-1.2-3.57h-.04Zm0 0-1.19 3.57h2.43l-1.2-3.57h-.04Zm0 0-1.19 3.57h2.43l-1.2-3.57h-.04Zm0 0-1.19 3.57h2.43l-1.2-3.57h-.04Z" fill="#fff"></path><path d="M333.58 212.95v90.3h-66.6l-.89 2.24c-1.06 2.64-3.02 5.07-9.96 5.07-6.94 0-8.9-2.43-9.97-5.07l-.89-2.23h-66.46v-90.31h-7.24v2.35l-5.07-1.56a5.6 5.6 0 0 0-5.36-3.82 5.65 5.65 0 0 0-5.67 5.59 5.65 5.65 0 0 0 9.12 4.4l6.98 2.1v6.9l-5.03-.9a5.59 5.59 0 0 0-4.8-3.18 5.6 5.6 0 0 0-5.93 5.29 5.58 5.58 0 0 0 5.37 5.84 5.56 5.56 0 0 0 4.22-1.6l6.17 1.1v7.04l-5.28-.2a5.67 5.67 0 0 0-4.77-2.57 5.62 5.62 0 0 0-5.66 5.59c0 3.1 2.55 5.58 5.66 5.58a5.5 5.5 0 0 0 4.43-2.18l5.58.25v7.68l-5.45.21a5.65 5.65 0 0 0-10.13 3.4 5.65 5.65 0 0 0 5.66 5.59c1.95 0 3.7-1 4.72-2.52l5.2-.17v7.06l-6 1a5.67 5.67 0 0 0-9.67 3.95 5.68 5.68 0 0 0 10.77 2.4l4.94-.85v6.93l-6.69 2.02a5.68 5.68 0 0 0-3.44-1.18 5.62 5.62 0 0 0-5.67 5.59c0 3.1 2.56 5.58 5.66 5.58 2.52 0 4.6-1.6 5.33-3.82l4.77-1.43v6.63l-7.46 3.2a5.6 5.6 0 0 0-8.6 4.95 5.69 5.69 0 0 0 5.88 5.38 5.61 5.61 0 0 0 5.28-4.41l4.9-2.1v6.55h69.23c2.94 4.83 7.92 7.3 15.32 7.3 7.41 0 12.44-2.52 15.38-7.3h69.4v-97.45h-7.24l-.04-.21ZM210.7 183.64c-13.97 0-25.25 2.14-25.25 4.79 0 2.64 11.28 4.78 25.25 4.78 13.96 0 25.25-2.14 25.25-4.78 0-2.65-11.29-4.8-25.25-4.8ZM245.44 152.82l-14.56 10.12-.13 1 3.45 1.56c.68.34.68.88.34 1.22l-9.15 7.6-.9-.09-6.47-9.44c-.43-.63-.3-1.22.51-1.35l4.34-.71v-1.1l-11.28-15.7h-1.87l-11.28 15.7v1.1l4.34.71c.76.13.93.76.5 1.35l-6.46 9.44-.9.09-8.55-7.6c-.35-.34-.35-.88.34-1.22l3.44-1.55-.12-1.01-15.16-10.12-1.24.46 8.9 26.87c4.52-2.01 14.9-3.4 27.08-3.48 12.18.04 22.57 1.47 27.08 3.48l8.9-26.87-1.24-.46h.1ZM255.96 363.72c-13.97 0-25.25 2.14-25.25 4.79 0 2.64 11.28 4.78 25.25 4.78 13.96 0 25.25-2.14 25.25-4.78 0-2.65-11.29-4.79-25.25-4.79ZM290.74 332.9l-14.56 10.12-.13 1 3.45 1.56c.68.34.68.88.34 1.22l-9.15 7.64-.9-.08-6.47-9.4c-.42-.64-.3-1.22.51-1.35l4.35-.72v-1.09l-11.29-15.74h-1.87l-11.28 15.74v1.1l4.34.7c.77.13.94.76.51 1.35l-6.47 9.4-.85.1-8.56-7.65c-.34-.34-.34-.88.34-1.22l3.45-1.55-.13-1-15.16-10.13-1.23.46 8.9 26.88c4.51-2.02 14.9-3.4 27.08-3.49 12.17.04 22.56 1.47 27.08 3.49l8.9-26.88-1.24-.46h.04ZM301.13 183.64c-13.92 0-25.25 2.14-25.25 4.79 0 2.64 11.33 4.78 25.25 4.78 13.93 0 25.25-2.14 25.25-4.78 0-2.65-11.28-4.8-25.25-4.8ZM335.88 152.82l-14.57 10.12-.12 1 3.44 1.56c.69.34.69.88.35 1.22l-9.16 7.6-.85-.09-6.47-9.44c-.43-.63-.3-1.22.5-1.35l4.35-.71v-1.1l-11.28-15.7h-1.87l-11.29 15.7v1.1l4.34.71c.77.13.94.76.52 1.35l-6.48 9.44-.85.09-8.56-7.73c-.34-.33-.34-.88.35-1.22l3.49-1.42-.13-1.01-15.2-10.12-1.24.46 8.9 26.87c4.52-2.01 14.9-3.4 27.08-3.48 12.18.04 22.57 1.47 27.08 3.48l8.9-26.87-1.23-.46ZM260.94 80.52c0 2.81-2.3 5.12-5.2 5.12a5.13 5.13 0 1 1 0-10.24c2.86 0 5.2 2.26 5.2 5.12ZM381.82 128.13c-.17 2.82-2.6 5-5.45 4.83a5.11 5.11 0 1 1 .55-10.2 5.12 5.12 0 0 1 4.9 5.37ZM238.8 430.56c0 2.82-2.3 5.13-5.2 5.13a5.13 5.13 0 1 1 0-10.25c2.9 0 5.2 2.27 5.2 5.12ZM289.76 438.83c0 2.82-2.3 5.13-5.19 5.13a5.09 5.09 0 0 1-5.15-5.13c0-2.85 2.3-5.08 5.15-5.08 2.85 0 5.2 2.27 5.2 5.08ZM117.32 334.37c1.8 0 6.77.5 11.03 6.43 1.75 2.43 2.98 5.33 2.98 8.35 0 5-2.47 7.9-8.43 12l-15.8 11.01-4.3-6 17.67-12.3c1.62-1.14 3.84-2.99 3.84-5.38 0-1.3-.17-2.4-1.4-4.07-1.88-2.65-3.84-2.86-5.08-2.86-1.87 0-3.66 1.1-7.45 3.74l-15.32 9.82-4.18-5.83 16.27-10.5c4.3-2.98 7.07-4.4 10.13-4.4h.04ZM89.22 320.18l21.59-8.36 2.34 5.97-32.61 12.47-2.3-6.22 16.86-21.2-21.76 7.52-2.34-6.3 32.91-11.34 2.17 5.88-16.9 21.58h.04ZM65.8 277.4l34.62-5.21 1.1 7.26-34.65 5.2-1.1-7.25h.04ZM99.19 249.52l-35.51 10.5.3-7.4 26.65-7.1-25.93-9.4.3-7.18 34.48 13.48-.3 7.14v-.04ZM68.74 210.22l5.8-20.12 5.74 1.6-3.79 13.14 7.84 2.19 3.57-12.35 5.67 1.6-3.58 12.34 8.6 2.4 3.92-13.57 5.87 1.64-5.91 20.53-33.68-9.44-.05.04ZM122.22 171.46l-10.39-.92c-4.9-.46-5.4.71-6.77 3.15l-.42.71 12.3 6.47-3.66 6.38-30.78-16.63 5.06-8.73c2.3-4.03 4.69-8.31 10.86-8.31 3.87 0 9.24 3.19 9.24 8.98 0 1-.26 2.1-.68 3.23 1.4-1.97 3.91-2.26 6.17-2.22 1.28 0 2.51.2 3.54.3l9.36.8-3.83 6.8Zm-25.84-10.45c-1.8.5-2.73 1.84-4.05 4.2l-1.15 1.97 8.52 4.53 1.44-2.52c1.2-2.14 1.45-3.35 1.07-4.82a5.5 5.5 0 0 0-2.47-2.9 4.41 4.41 0 0 0-3.32-.42l-.04-.04ZM137.76 103.4l5.96-4.4 21.08 27.58-5.96 4.4-21.08-27.58ZM177.06 86.27l13.33 25.45-6.64 3.36-13.33-25.45-8.56 4.37-2.72-5.25L182.8 76.7l2.72 5.25-8.51 4.32h.04ZM218.06 88.12l3.37 13.35-6.94 1.72-3.37-13.4-15.8-17.5 7.33-1.8 10.43 12.05 3.54-15.5 7.02-1.68-5.62 22.8.04-.04ZM344.9 100.55l11.07 6.5-3.02 5-11.07-6.5-7.7 12.72-6.3-3.7L345.8 84.9l17.96 10.53-3.06 5.08-11.63-6.84-4.17 6.89ZM407.88 212.78l9.57-10.41-13.92-3.24-2.3-7.22 20.7 5.33 12.98-14.99 2.39 7.56-8.9 9.57 12.94 3.07 2.26 7.05-19.25-5.08-14.1 15.79-2.38-7.52v.09ZM441.38 237.42l-8.13.63.85 12.77-5.87.38-.86-12.68-14.98 1-.51-6.92 34.95-2.82 1.4 20.79-5.95.37-.9-13.52Z" fill="#fff"></path><path fill-rule="evenodd" clip-rule="evenodd" d="M466 254.34v-.04ZM257.7 46c115.81.93 209.23 94.4 208.3 208.39v-.09c-.56 64.58-30.75 123.7-82.86 162.83-25.3 26.2-57.01 41.94-94.61 47.02l-7.11.84c-6.64.63-13.46 1.01-20.48 1.01-8.69 0-18.01-.88-27.5-2.48l-7.37-1.34c-6.9-1.43-13.8-3.2-20.53-5.3a52.03 52.03 0 0 1-19.92 3.96c-24.19 0-44.45-16.5-49.86-38.67C79 383.07 45.46 319.2 46.01 251.03c.47-57.19 24.1-110.22 66.55-149.3C152.06 65.35 203.59 45.58 257.7 46Zm-72.04 407.9c-24.18 0-43.85-19.47-43.85-43.4a42.7 42.7 0 0 1 5.32-20.7 386.3 386.3 0 0 0 7.1 6.2 33.8 33.8 0 0 0-3.35 14.62c0 13.01 6.64 23.72 19.2 31.03a163.82 163.82 0 0 0 24.31 11.38c-2.85.54-5.8.84-8.73.84v.04Zm70.38-63.4c-8.22 0-16.3-.7-24.22-2.1-8.56-17.2-26.61-28.3-46.12-28.3-4.98 0-9.83.76-14.39 2.07-34.4-26-54.92-66.64-54.92-109.46 0-76 62.67-137.8 139.65-137.8S395.7 176.7 395.7 252.7c0 76-62.63 137.8-139.66 137.8Zm-70.38-23.46a44.37 44.37 0 0 1 36.53 19.35 137.74 137.74 0 0 1-20.86-6.88l-.21-.09a35.07 35.07 0 0 0-15.08-3.31 35.51 35.51 0 0 0-28.48 14.27 186.28 186.28 0 0 1-7.96-4.62A43.91 43.91 0 0 1 185.66 367v.04Zm75.2 91.99c-27.98 0-62.9-9.36-86.87-23.34-7.15-4.16-15.7-11.93-15.7-25.15 0-3.45.68-6.72 1.83-9.75 9.06 7.35 18.35 14.2 24.22 17.34a6.65 6.65 0 0 0 3.8 1.1c3.82 0 6.97-3.11 6.97-6.89 0-2.9-1.61-5.29-4.25-6.42l-3.13-1.34h-.01c-5.6-2.39-14.3-6.1-23.6-10.84A27.7 27.7 0 0 1 186.09 383c4.09 0 8.04.88 11.75 2.6l7.62 4.41.02.02c24.29 14.62 86.3 51.96 161.44 32.57-28.4 24.43-63.23 36.44-106.07 36.44Zm-19.64-62.3c-4.5-.43-14.43-2.74-18.86-4.17 2.81 1.64 11.46 5.63 15.93 7.52l6.34 2.94a223.23 223.23 0 0 0 34.62 12.22l7.28 1.68c26.82 5.83 58.2 6.59 91.8-5.08 50.5-37.75 79.74-95.02 80.25-157.58.9-110.13-89.24-200.49-200.92-201.37-52.12-.42-101.8 18.69-139.87 53.75-41.04 37.78-63.86 89.05-64.33 144.39-.51 63.6 29.63 123.23 80.98 161.31 0-.34-.02-.67-.04-1-.02-.31-.05-.62-.05-.93a49.2 49.2 0 0 1 7.29-25.74 91.41 91.41 0 0 1-6.39-6.63l1.36-1.35a97.23 97.23 0 0 0 6.9 5.13 51.82 51.82 0 0 1 19.93-16.76c-34.24-27.37-54.5-68.85-54.5-112.44 0-79.81 66-144.77 147.1-144.77 81.11 0 147.1 64.96 147.1 144.77 0 65.2-44.06 120.46-104.4 138.52l-12.9 3.31v-.04a151.35 151.35 0 0 1-29.8 2.98h-1.06l-13.75-.67Z" fill="#fff"></path><path d="M144.1 140.52c0 2.94-1.31 6.09-3.91 8.9-5.03 5.42-10.39 5.92-10.94 5.92l-1.54-5.71c.86-.21 4.77-1 7.58-4.03 1.28-1.34 1.92-2.81 1.92-4.12 0-1.34-.9-3.73-3.75-3.73-3.06 0-8.13 4.36-13.37 4.36a9 9 0 0 1-6.56-2.39 9.55 9.55 0 0 1-3.27-7.22c0-2.86 1.32-5.88 3.79-8.52 4.68-5.04 9.83-5.46 10.26-5.46l1.23 5.62c-.6.09-4.43.93-6.81 3.49-1.23 1.3-1.87 2.73-1.87 3.99 0 1.34.89 3.02 3.15 3.06 2.5 0 8.81-4.49 13.92-4.49 2.38 0 4.09.42 6.51 2.6a10.3 10.3 0 0 1 3.62 7.77l.05-.04ZM305.52 105.75c-8.94 0-17.03-6.71-17.03-16.8 0-9.02 6.13-19.47 17.24-19.47 9.07 0 17.46 6.3 17.46 16.46 0 7.64-5.24 19.81-17.63 19.81h-.04Zm10.17-19.9c0-2.4-.55-4.87-2-6.8a8.67 8.67 0 0 0-6.98-3.4c-6.26 0-10.86 7.68-10.86 14.02 0 5.88 4.05 9.91 9.45 9.91 7.12 0 10.44-9.11 10.44-13.69l-.05-.04ZM402.72 179.6c-10.64 0-16.52-10.11-16.52-16.91 0-10.33 11.24-18.18 20.06-18.18 9.58 0 16.6 8.98 16.6 17.13 0 9.24-9.8 17.97-20.1 17.97h-.04Zm-1.23-7c6.17 0 14.69-5.25 14.69-12.3a8.58 8.58 0 0 0-8.73-8.66c-5.75 0-14.52 5.04-14.52 12.18 0 3.82 2.94 8.82 8.6 8.82l-.04-.04ZM409.62 281.38c0-8.52 5.88-16.92 17.5-16.92 9.8 0 19.25 5.97 19.25 16.63 0 8.78-5.71 17.22-17.3 17.22-9.87 0-19.5-6.18-19.5-16.97l.05.04Zm19.88 9.58c6.22 0 10.78-3.74 10.78-9.24 0-6.55-7.71-9.9-13.67-9.9-7.62 0-10.73 4.86-10.73 9.48 0 7.18 8.94 9.66 13.62 9.66ZM396.3 322.11h10.43c4.93.08 5.32-1.09 6.47-3.65l.34-.76-12.52-5.75 3.02-6.55 31.72 14.44-4.08 8.99c-2.77 6.05-5.16 9.11-10.99 9.11-3.75 0-9.2-3.06-9.15-8.7 0-.87.12-1.8.42-2.76-1.87 3.19-6.56 2.77-9.5 2.77h-9.36l3.24-7.14h-.05Zm20.3 3.86a4.82 4.82 0 0 0 4.77 4.75c2.26 0 3.62-1.22 4.94-4.07l1.1-2.6-8.64-4.04-1.44 3.2a6.89 6.89 0 0 0-.69 2.76h-.04ZM374.96 360.32c0-7.05 3.32-10.92 7.54-16.04l4.55-5.5 27.17 21.8-6.09 7.38c-3.45 4.16-7.5 9.32-15.28 9.32-4.43 0-8.35-2.01-11.12-4.24-3.45-2.77-6.77-7.47-6.77-12.76v.04Zm18.65 10.12c3.7 0 5.83-1.1 10.1-6.26l1.31-1.6-18.05-14.48-2.22 2.69c-2.17 2.64-3.32 5.25-3.32 7.72 0 3.32 1.66 6.26 5.07 8.99 2.47 1.97 4.73 2.94 7.07 2.94h.04Z" fill="#fff"></path></svg><style>@media (prefers-color-scheme: light) { :root { filter: none; } }
@media (prefers-color-scheme: dark) { :root { filter: none; } }
</style></svg>